<?xml version="1.0" standalone="no"?>
<!DOCTYPE svg PUBLIC "-//W3C//DTD SVG 20010904//EN"
 "http://www.w3.org/TR/2001/REC-SVG-20010904/DTD/svg10.dtd">
<svg version="1.0" xmlns="http://www.w3.org/2000/svg"
 width="747.000000pt" height="334.000000pt" viewBox="0 0 747.000000 334.000000"
 preserveAspectRatio="xMidYMid meet">

<g transform="translate(0.000000,334.000000) scale(0.100000,-0.100000)"
fill="#000000" stroke="none">
<path d="M570 2311 c0 -115 2 -130 18 -134 16 -4 16 -5 0 -6 -15 -1 -18 -11
-18 -56 0 -50 2 -55 25 -61 16 -4 25 -13 24 -23 -3 -30 1 -35 14 -17 11 16 13
15 15 -9 1 -15 4 -31 8 -36 7 -12 34 -12 34 1 0 6 -6 10 -13 10 -9 0 -12 11
-9 35 5 44 36 49 50 8 l9 -28 16 30 c14 27 16 28 22 10 15 -43 15 -48 4 -61
-6 -7 -9 -25 -7 -41 2 -24 9 -29 38 -33 19 -3 43 -10 54 -16 15 -9 16 -15 7
-33 -10 -17 -9 -21 4 -21 9 0 13 5 10 10 -11 18 22 10 40 -10 10 -11 22 -20
27 -20 10 0 -15 49 -141 268 -42 73 -84 149 -94 169 -15 28 -21 33 -28 22 -6
-10 -9 -7 -9 12 0 33 -69 159 -87 159 -10 0 -13 -29 -13 -129z"/>
<path d="M1363 2410 c0 -17 3 -26 6 -21 4 5 13 4 24 -4 15 -11 16 -13 2 -19
-13 -5 -13 -8 2 -25 13 -15 20 -18 30 -9 15 12 18 32 3 23 -5 -3 -10 -2 -10 3
0 5 21 12 48 16 33 5 55 15 76 36 l29 30 -105 0 -105 0 0 -30z"/>
<path d="M2711 2419 c-10 -28 89 -278 118 -297 17 -12 20 -10 31 23 9 26 9 39
1 49 -8 10 -8 16 3 25 8 7 17 23 20 37 4 14 10 23 15 20 8 -5 31 36 31 56 0 5
-7 8 -15 4 -8 -3 -15 -1 -15 5 0 5 7 12 15 15 8 3 17 21 21 39 4 23 10 32 20
28 8 -3 14 -1 14 4 0 16 -122 16 -131 1 -7 -10 -9 -10 -9 0 0 8 -18 12 -55 12
-48 0 -57 -3 -64 -21z"/>
<path d="M4171 2333 c0 -88 2 -104 12 -89 39 61 95 121 142 153 30 19 55 37
55 39 0 2 -47 4 -105 4 l-105 0 1 -107z"/>
<path d="M5224 2427 c101 -64 175 -152 212 -251 l23 -61 -2 83 c-1 57 -5 82
-14 82 -6 0 -15 5 -19 11 -4 8 0 9 15 4 21 -6 21 -4 20 69 l-1 76 -127 -1
c-101 0 -122 -2 -107 -12z"/>
<path d="M6570 2421 c126 -49 224 -154 261 -278 7 -24 16 -43 21 -43 4 0 8 63
8 140 l0 140 -30 0 c-16 0 -30 5 -30 10 0 6 14 10 30 10 23 0 30 4 30 20 0 19
-7 20 -167 20 l-168 -1 45 -18z"/>
<path d="M1393 2273 c13 -3 15 -8 8 -17 -8 -9 -4 -31 15 -77 38 -95 44 -94 44
9 l0 92 -42 -1 c-24 -1 -35 -3 -25 -6z"/>
<path d="M3527 2243 c-32 -51 -47 -80 -47 -91 0 -5 16 -17 35 -28 20 -10 33
-24 31 -31 -3 -6 0 -13 6 -15 14 -5 -17 -104 -32 -100 -6 1 -9 -2 -6 -7 8 -12
-33 -63 -45 -56 -5 4 -9 -1 -9 -9 0 -9 -5 -16 -11 -16 -5 0 -7 5 -3 12 5 7 7
25 6 40 -2 22 2 28 18 28 11 0 20 3 20 6 0 13 -26 30 -40 27 -10 -3 -9 0 3 7
21 14 22 36 1 44 -26 10 -34 7 -34 -15 0 -11 -4 -18 -10 -14 -5 3 -19 -13 -30
-36 -18 -34 -20 -50 -14 -93 5 -28 9 -58 10 -66 0 -8 2 -17 3 -20 2 -3 4 -15
5 -27 2 -19 -4 -24 -31 -29 -18 -3 -49 -3 -69 1 -24 4 -34 3 -29 -4 3 -6 32
-11 65 -11 64 0 55 7 124 -104 10 -17 26 -36 36 -43 10 -7 32 -35 50 -63 18
-28 35 -49 37 -46 7 7 -16 46 -54 92 -18 23 -33 44 -33 48 0 8 -36 61 -65 95
l-20 23 28 22 c16 11 54 31 85 42 l57 22 -1 213 c-1 202 -3 239 -11 239 -1 0
-13 -17 -26 -37z m-80 -215 c-3 -8 -6 -5 -6 6 -1 11 2 17 5 13 3 -3 4 -12 1
-19z"/>
<path d="M2107 2164 c-3 -3 -3 -13 0 -22 4 -10 2 -13 -5 -8 -11 6 -17 -5 -13
-26 0 -5 -5 -8 -11 -9 -7 0 -3 -4 8 -9 27 -11 30 -56 3 -63 -12 -3 -16 -11
-12 -26 3 -12 10 -21 15 -21 5 0 6 -6 3 -12 -4 -7 1 -4 9 6 14 17 16 18 16 3
0 -12 8 -17 29 -17 17 0 32 4 36 10 4 6 15 6 30 0 l25 -9 -32 57 c-33 61 -89
152 -92 152 -2 0 -5 -3 -9 -6z"/>
<path d="M4769 2125 c-4 -5 -10 -25 -14 -42 -8 -42 -29 -44 -23 -3 l5 30 -20
-21 c-16 -17 -17 -23 -6 -30 11 -8 11 -11 -5 -20 -17 -11 -17 -12 6 -33 13
-11 27 -29 31 -38 3 -10 13 -18 22 -18 8 0 15 -4 15 -8 0 -14 304 -146 323
-139 6 2 20 -4 30 -14 10 -9 26 -15 36 -12 13 3 20 -2 24 -17 3 -12 11 -20 18
-18 7 2 20 -2 28 -9 92 -79 159 -123 189 -123 l32 0 0 160 0 160 -170 -2 -170
-3 0 -37 c0 -36 2 -38 33 -38 40 0 65 -14 46 -26 -7 -4 -14 -3 -17 4 -2 7 -8
12 -13 12 -6 0 -8 -4 -5 -9 3 -5 -1 -11 -9 -15 -8 -3 -15 -1 -15 4 0 5 -8 10
-17 12 -14 3 -18 13 -18 48 0 34 -4 46 -17 48 -11 2 -18 -5 -21 -20 l-4 -23
-2 23 c-1 20 -6 22 -56 22 l-55 0 0 45 c0 70 -38 145 -52 103 -3 -7 -14 -9
-31 -4 -15 3 -26 10 -24 14 2 4 -4 14 -13 23 -17 16 -17 14 -12 -24 l5 -40
-21 21 c-11 11 -22 31 -24 44 -2 13 -6 19 -9 13z m21 -75 c0 -5 -4 -10 -10
-10 -5 0 -10 5 -10 10 0 6 5 10 10 10 6 0 10 -4 10 -10z m-46 -42 c-4 -6 -10
-5 -15 3 -14 22 -10 33 6 19 8 -7 12 -17 9 -22z m151 -28 c3 -5 1 -10 -4 -10
-6 0 -11 5 -11 10 0 6 2 10 4 10 3 0 8 -4 11 -10z m453 -142 c10 -36 9 -37
-10 -27 -11 6 -26 8 -34 5 -20 -8 -8 34 15 51 19 14 17 16 29 -29z m-61 6 c-3
-3 -12 -4 -19 -1 -8 3 -5 6 6 6 11 1 17 -2 13 -5z"/>
<path d="M3466 2112 c-3 -6 -1 -14 5 -17 15 -10 25 3 12 16 -7 7 -13 7 -17 1z"/>
<path d="M4880 2094 c0 -8 5 -12 10 -9 6 3 10 10 10 16 0 5 -4 9 -10 9 -5 0
-10 -7 -10 -16z"/>
<path d="M2075 2070 c-3 -5 -1 -10 4 -10 6 0 11 5 11 10 0 6 -2 10 -4 10 -3 0
-8 -4 -11 -10z"/>
<path d="M2037 2039 c-19 -33 -23 -79 -7 -79 6 0 10 5 10 11 0 5 5 7 12 3 8
-5 9 -2 4 12 -13 30 -12 49 2 47 14 -3 15 6 4 24 -5 8 -13 2 -25 -18z"/>
<path d="M3480 2059 c0 -5 5 -7 10 -4 6 3 10 8 10 11 0 2 -4 4 -10 4 -5 0 -10
-5 -10 -11z"/>
<path d="M6090 2035 c-10 -12 -11 -18 -2 -24 7 -4 8 -12 2 -21 -6 -8 -10 -24
-10 -35 0 -17 2 -17 10 -5 6 9 10 10 10 3 0 -23 -13 -43 -29 -44 -10 0 -7 -4
9 -10 13 -6 20 -13 15 -17 -16 -11 -15 -72 1 -72 8 0 14 7 14 16 0 11 6 14 23
8 22 -7 22 -7 -2 13 -20 16 -22 23 -13 40 6 11 8 24 4 28 -4 4 2 6 13 5 36 -4
39 0 16 24 -13 14 -18 27 -13 30 6 3 8 15 5 25 -5 19 -3 19 48 6 61 -16 71
-13 43 15 -28 28 -125 38 -144 15z"/>
<path d="M600 1965 c7 -8 7 -15 1 -19 -5 -3 -11 0 -14 6 -2 7 -7 10 -11 7 -10
-10 5 -39 20 -39 8 0 14 5 14 10 0 6 5 10 11 10 6 0 9 -7 5 -15 -4 -11 2 -15
24 -15 35 0 32 16 -6 45 -31 23 -61 30 -44 10z"/>
<path d="M1991 1934 c0 -11 3 -14 6 -6 3 7 2 16 -1 19 -3 4 -6 -2 -5 -13z"/>
<path d="M6199 1919 c-10 -6 -10 -9 -2 -9 7 0 10 -6 7 -13 -2 -7 10 -26 27
-42 26 -24 29 -26 20 -8 -6 12 -16 25 -21 28 -6 3 -10 14 -9 23 0 11 3 12 6 5
6 -17 23 -16 23 1 0 17 -33 27 -51 15z"/>
<path d="M570 1540 c0 -222 4 -351 10 -355 7 -4 7 -12 0 -25 -5 -10 -10 -57
-10 -104 l0 -86 34 0 c22 0 36 6 40 16 3 9 12 14 19 11 15 -6 17 44 2 56 -6 4
-2 13 10 23 11 8 21 11 23 5 4 -11 44 -2 54 13 8 12 0 55 -13 72 -5 6 -6 14
-3 17 12 11 -6 59 -20 54 -17 -7 -40 63 -26 77 13 13 13 36 -1 36 -5 0 -7 -4
-4 -10 3 -5 1 -10 -4 -10 -6 0 -11 7 -11 15 0 8 5 15 11 15 20 0 49 -21 49
-35 0 -8 5 -15 10 -15 13 0 13 23 -1 37 -5 5 -7 22 -3 37 4 19 13 26 29 26 13
0 27 -5 30 -10 4 -6 11 -7 17 -4 6 4 8 2 5 -3 -4 -6 3 -19 16 -29 12 -10 17
-13 11 -5 -7 7 -9 21 -7 32 5 18 7 19 30 4 14 -9 31 -14 38 -11 7 2 33 42 56
87 33 64 42 91 40 122 -2 23 2 43 9 47 7 4 -24 11 -68 15 -84 7 -110 2 -94
-18 19 -23 24 -74 9 -89 -8 -8 -18 -28 -22 -46 -7 -34 -25 -53 -25 -27 0 9 -4
14 -8 11 -9 -5 -15 5 -46 76 -18 41 -21 78 -5 78 5 0 7 5 4 10 -3 6 -15 10
-26 10 -26 0 -35 25 -19 58 13 26 16 39 23 82 4 22 17 39 17 21 0 -19 49 22
50 42 0 9 -4 17 -9 17 -5 0 -16 3 -25 6 -11 4 -16 0 -16 -15 0 -11 -9 -25 -19
-31 -20 -10 -24 2 -9 26 4 6 -8 10 -33 11 -23 0 -39 -4 -39 -11 0 -7 -3 -7 -8
2 -5 7 -23 14 -40 17 l-32 4 0 -349z m109 288 c0 -31 -1 -31 -10 -10 -5 13 -7
28 -3 33 10 16 14 9 13 -23z m41 -18 c0 -5 -5 -10 -11 -10 -5 0 -7 5 -4 10 3
6 8 10 11 10 2 0 4 -4 4 -10z m-73 -110 c-3 -10 0 -21 7 -24 6 -2 4 -5 -5 -5
-16 -1 -32 32 -21 43 12 13 24 5 19 -14z m273 -60 c0 -5 -4 -10 -10 -10 -5 0
-10 5 -10 10 0 6 5 10 10 10 6 0 10 -4 10 -10z m30 -26 c0 -8 -4 -12 -10 -9
-5 3 -10 10 -10 16 0 5 5 9 10 9 6 0 10 -7 10 -16z m-247 -451 c3 -5 1 -17 -3
-28 -6 -17 -7 -16 -12 8 -5 25 5 37 15 20z m-73 -94 c0 -5 -4 -9 -10 -9 -5 0
-10 7 -10 16 0 8 5 12 10 9 6 -3 10 -10 10 -16z"/>
<path d="M6160 1869 c0 -2 4 -18 9 -36 11 -38 2 -48 -54 -57 -28 -5 -35 -4
-25 3 8 5 11 13 7 18 -8 7 -26 -13 -27 -29 0 -11 58 -20 82 -12 13 4 30 7 39
6 8 -2 23 5 31 15 22 24 13 75 -12 71 -9 -2 -24 3 -33 11 -10 7 -17 12 -17 10z"/>
<path d="M2250 1849 c0 -7 -10 -9 -25 -7 -14 3 -25 1 -25 -3 0 -12 42 -21 81
-17 31 3 32 4 15 21 -20 19 -46 23 -46 6z"/>
<path d="M2158 1833 c7 -3 16 -2 19 1 4 3 -2 6 -13 5 -11 0 -14 -3 -6 -6z"/>
<path d="M2081 1788 c-8 -23 -8 -23 102 -26 114 -3 141 5 117 33 -9 10 -30 15
-69 14 -48 0 -53 -2 -33 -11 12 -6 22 -16 22 -22 0 -6 -5 -5 -12 2 -15 15 -32
16 -23 2 3 -5 1 -10 -4 -10 -6 0 -11 5 -11 11 0 5 -4 8 -9 5 -4 -3 -17 1 -27
9 -27 21 -43 18 -53 -7z m194 2 c3 -5 -1 -10 -9 -10 -9 0 -16 5 -16 10 0 6 4
10 9 10 6 0 13 -4 16 -10z m-150 -10 c3 -6 -1 -7 -9 -4 -18 7 -21 14 -7 14 6
0 13 -4 16 -10z"/>
<path d="M2323 1772 c4 -34 2 -44 -14 -52 -10 -6 -19 -17 -19 -24 0 -18 23
-27 41 -16 17 11 39 -6 39 -32 0 -10 -7 -21 -15 -24 -22 -9 -18 -32 7 -40 16
-5 27 -1 40 16 10 12 18 27 18 34 0 23 -32 56 -63 65 -32 9 -32 9 -4 10 l27 1
-19 38 c-36 67 -43 72 -38 24z"/>
<path d="M1875 1760 c-4 -12 -21 -44 -37 -70 -34 -55 -32 -77 9 -82 22 -2 28
-8 28 -28 0 -16 8 -28 23 -35 20 -9 22 -15 16 -51 -5 -36 0 -51 44 -130 65
-118 92 -161 92 -150 0 6 3 6 9 0 6 -5 37 -7 71 -6 l61 4 22 46 c12 26 25 49
28 52 14 12 39 70 29 70 -5 0 -10 12 -10 26 0 14 -4 23 -10 19 -5 -3 -10 -28
-10 -56 0 -27 -4 -49 -8 -49 -5 0 -7 23 -6 51 l2 50 -30 -6 c-46 -10 -168 4
-168 20 0 7 -4 15 -8 17 -4 2 -18 23 -30 47 l-23 43 21 15 c11 8 20 21 20 29
0 8 9 14 19 14 27 0 33 14 16 36 -8 10 -15 40 -15 65 0 40 -3 47 -27 58 -20 9
-28 10 -31 1 -3 -8 -7 -8 -17 0 -8 7 -27 14 -44 16 -23 4 -31 1 -36 -16z m65
-6 c0 -2 -12 -4 -26 -4 -14 0 -23 4 -20 9 6 8 46 4 46 -5z m18 -89 c-1 -14 -8
-25 -15 -25 -10 0 -10 6 -1 25 6 14 13 25 14 25 2 0 3 -11 2 -25z m-48 -92 c0
-19 -13 -9 -16 12 -1 8 2 13 7 9 5 -3 9 -12 9 -21z m43 11 c-5 -14 -3 -15 18
-4 22 12 23 12 10 -3 -12 -15 -51 -24 -51 -13 0 13 13 36 21 36 4 0 6 -7 2
-16z m227 -194 c0 -5 -10 -10 -22 -10 -19 0 -20 2 -8 10 19 13 30 13 30 0z m0
-40 c0 -17 -2 -19 -14 -8 -14 13 -12 28 5 28 5 0 9 -9 9 -20z"/>
<path d="M2080 1738 c0 -7 -3 -30 -7 -52 -6 -35 -5 -37 13 -26 22 14 28 90 7
90 -7 0 -13 -6 -13 -12z"/>
<path d="M2153 1737 c-2 -4 -8 -5 -13 -2 -11 7 -33 -22 -25 -35 3 -6 10 -8 15
-5 20 13 59 -9 84 -47 14 -22 26 -43 26 -48 0 -4 9 -10 20 -13 27 -7 26 14 -4
46 -14 15 -28 37 -32 49 -3 13 -11 26 -17 30 -7 4 -7 11 0 20 9 10 5 13 -19
13 -16 0 -32 -3 -35 -8z"/>
<path d="M793 1725 c0 -8 4 -12 9 -9 5 3 6 10 3 15 -9 13 -12 11 -12 -6z"/>
<path d="M3523 1733 c9 -2 25 -2 35 0 9 3 1 5 -18 5 -19 0 -27 -2 -17 -5z"/>
<path d="M838 1695 c5 -29 8 -31 15 -11 3 8 0 19 -7 25 -10 9 -12 6 -8 -14z"/>
<path d="M2040 1690 c0 -11 4 -20 9 -20 5 0 7 9 4 20 -3 11 -7 20 -9 20 -2 0
-4 -9 -4 -20z"/>
<path d="M3513 1683 c9 -2 25 -2 35 0 9 3 1 5 -18 5 -19 0 -27 -2 -17 -5z"/>
<path d="M3248 1662 c-19 -4 -26 -62 -8 -62 6 0 10 -5 10 -11 0 -5 -4 -8 -9
-5 -5 3 -11 0 -14 -8 -4 -10 7 -17 41 -25 55 -13 112 -12 112 1 0 15 -21 50
-45 74 -13 13 -26 29 -29 36 -5 11 -7 11 -12 0 -4 -8 -10 -9 -17 -4 -7 5 -20
7 -29 4z m-1 -34 c-3 -8 -6 -5 -6 6 -1 11 2 17 5 13 3 -3 4 -12 1 -19z"/>
<path d="M4205 1660 c-3 -5 -1 -11 4 -15 6 -3 9 -39 8 -81 -2 -72 -3 -75 -24
-69 -22 5 -23 3 -23 -69 l0 -75 138 0 c75 0 174 0 219 0 l81 -1 7 -52 c3 -29
10 -62 15 -73 4 -11 13 -35 20 -52 20 -54 79 -80 171 -74 15 0 41 14 58 30 25
23 31 37 31 71 0 90 -41 126 -255 221 -91 41 -136 55 -185 59 -36 3 -65 10
-66 15 -2 25 -19 46 -52 67 -21 13 -60 42 -89 65 -29 23 -55 38 -58 33z m515
-520 c-16 -31 -23 -19 -9 16 6 16 13 24 16 17 2 -7 -1 -22 -7 -33z"/>
<path d="M3212 1625 c0 -16 2 -22 5 -12 2 9 2 23 0 30 -3 6 -5 -1 -5 -18z"/>
<path d="M3498 1633 c7 -3 16 -2 19 1 4 3 -2 6 -13 5 -11 0 -14 -3 -6 -6z"/>
<path d="M2140 1610 c11 -20 30 -28 30 -12 0 11 -22 32 -32 32 -5 0 -4 -9 2
-20z"/>
<path d="M750 1615 c0 -15 18 -40 24 -34 3 3 -1 14 -9 25 -8 10 -14 15 -15 9z"/>
<path d="M792 1580 c0 -19 2 -27 5 -17 2 9 2 25 0 35 -3 9 -5 1 -5 -18z"/>
<path d="M5415 1590 c3 -5 11 -10 16 -10 6 0 7 5 4 10 -3 6 -11 10 -16 10 -6
0 -7 -4 -4 -10z"/>
<path d="M5443 1581 c-9 -15 -9 -23 2 -37 13 -17 14 -16 15 19 0 43 -1 44 -17
18z"/>
<path d="M3528 1583 c7 -3 16 -2 19 1 4 3 -2 6 -13 5 -11 0 -14 -3 -6 -6z"/>
<path d="M1845 1570 c3 -5 8 -10 11 -10 2 0 4 5 4 10 0 6 -5 10 -11 10 -5 0
-7 -4 -4 -10z"/>
<path d="M3390 1531 c0 -5 7 -11 15 -15 8 -3 15 -1 15 3 0 5 -7 11 -15 15 -8
3 -15 1 -15 -3z"/>
<path d="M3252 1505 c8 -19 14 -22 24 -14 17 14 6 39 -17 39 -16 0 -17 -3 -7
-25z"/>
<path d="M6811 1500 c14 -31 19 -36 19 -24 0 6 -7 19 -16 30 -14 18 -14 18 -3
-6z"/>
<path d="M2280 1413 c0 -22 2 -25 10 -13 13 20 13 40 0 40 -5 0 -10 -12 -10
-27z"/>
<path d="M3440 1410 c0 -11 4 -20 9 -20 11 0 22 26 14 34 -12 12 -23 5 -23
-14z"/>
<path d="M6623 1399 c-61 -39 -161 -61 -301 -66 l-133 -6 32 -33 c18 -18 45
-36 60 -39 16 -4 33 -14 38 -22 4 -9 14 -13 22 -11 42 15 95 -78 98 -171 1
-21 5 -23 41 -19 37 3 39 2 35 -20 -3 -17 0 -22 9 -19 13 5 52 -61 41 -71 -3
-3 -5 1 -5 9 0 12 -2 12 -9 0 -7 -11 -18 -6 -51 27 -38 37 -45 40 -64 29 -28
-16 -66 -18 -66 -5 0 7 9 21 20 33 17 18 18 25 7 48 -6 15 -20 30 -30 33 -10
3 -16 12 -13 20 3 7 1 16 -4 19 -4 3 -10 1 -12 -5 -1 -5 -13 -7 -25 -4 -13 4
-20 10 -17 15 3 5 -6 9 -19 9 -26 0 -52 22 -40 33 3 4 -4 7 -18 7 -59 0 -115
14 -127 31 -7 11 -18 19 -24 19 -7 0 -6 -6 2 -15 9 -11 9 -15 1 -15 -8 0 -11
-32 -10 -107 1 -98 3 -105 16 -88 11 14 17 16 20 8 3 -7 14 -13 26 -13 12 0
31 -7 41 -15 23 -17 17 -19 -57 -15 l-48 2 3 -109 3 -108 398 -3 398 -2 -3
254 c-3 248 -4 254 -25 272 -12 11 -23 26 -25 34 -5 23 -35 53 -50 47 -9 -4
-9 -6 3 -6 9 -1 16 -8 16 -15 0 -11 -9 -8 -29 10 -16 13 -36 24 -44 24 -9 0
-13 4 -10 9 3 5 -1 14 -9 21 -13 10 -15 9 -15 -9 0 -13 -6 -21 -16 -21 -14 0
-14 3 -4 15 20 24 8 26 -27 4z m-266 -104 c-8 -20 -27 -20 -27 1 0 8 5 12 10
9 6 -3 10 -1 10 6 0 7 3 10 6 6 4 -3 4 -13 1 -22z m-17 -211 c0 -8 -5 -12 -10
-9 -6 4 -8 11 -5 16 9 14 15 11 15 -7z m-125 -94 c3 -5 -1 -10 -9 -10 -9 0
-16 5 -16 10 0 6 4 10 9 10 6 0 13 -4 16 -10z"/>
<path d="M3330 1380 c0 -5 5 -10 10 -10 6 0 10 5 10 10 0 6 -4 10 -10 10 -5 0
-10 -4 -10 -10z"/>
<path d="M3340 1354 c0 -5 17 -38 38 -74 l37 -65 53 -3 52 -3 0 -40 c0 -32 -3
-39 -20 -39 -13 0 -20 -7 -20 -20 0 -17 7 -20 45 -20 l45 0 0 130 0 130 -39 0
c-21 0 -44 -6 -50 -13 -13 -16 -5 -27 21 -27 14 0 18 -8 18 -35 0 -35 -1 -35
-42 -35 -24 0 -49 4 -56 9 -17 10 -5 61 14 61 8 0 14 9 14 20 0 12 -7 20 -17
20 -10 0 -35 3 -55 6 -21 4 -38 3 -38 -2z"/>
<path d="M865 1340 c3 -5 8 -10 11 -10 2 0 4 5 4 10 0 6 -5 10 -11 10 -5 0 -7
-4 -4 -10z"/>
<path d="M744 1307 c-13 -6 -21 -20 -21 -34 0 -12 4 -20 9 -17 16 10 37 -29
38 -68 0 -21 3 -38 8 -38 13 0 58 94 54 113 -6 29 -30 20 -24 -9 3 -19 1 -25
-7 -20 -6 4 -11 17 -11 28 0 11 -8 27 -17 35 -10 8 -12 12 -5 8 6 -3 12 -1 12
4 0 13 -7 12 -36 -2z"/>
<path d="M6085 1290 c3 -5 -2 -10 -11 -10 -25 0 -14 -6 25 -14 l34 -6 -23 20
c-25 22 -35 26 -25 10z"/>
<path d="M6127 1233 c-4 -3 -7 -11 -7 -17 0 -6 5 -5 12 2 6 6 9 14 7 17 -3 3
-9 2 -12 -2z"/>
<path d="M2148 1192 c-20 -2 -28 -9 -28 -23 0 -26 36 -25 50 2 14 25 13 25
-22 21z"/>
<path d="M1348 1028 c-22 -52 -43 -104 -104 -244 -7 -17 31 -23 106 -19 36 3
72 5 81 5 9 0 19 9 22 20 8 29 37 26 37 -5 0 -23 4 -25 41 -25 22 0 39 3 37 8
-1 4 -11 28 -22 55 -10 26 -22 47 -27 47 -5 0 -15 -12 -24 -27 -15 -27 -15
-27 -8 -3 12 42 9 93 -6 98 -10 3 -12 0 -8 -12 4 -10 0 -30 -8 -45 -11 -22
-11 -31 -2 -40 9 -10 8 -11 -6 -5 -12 4 -16 13 -12 25 5 14 2 17 -9 13 -12 -5
-16 0 -16 19 0 20 -6 27 -27 30 -27 4 -27 4 -5 12 12 4 22 10 22 14 -1 15 -28
40 -36 33 -5 -4 -1 3 9 14 13 15 16 30 11 49 -6 25 -5 26 14 14 24 -15 35 -9
26 15 -4 9 -17 16 -33 16 -24 0 -31 -7 -53 -62z"/>
<path d="M3500 1061 c0 -6 4 -13 10 -16 6 -3 7 1 4 9 -7 18 -14 21 -14 7z"/>
<path d="M1401 1007 c-13 -21 -12 -21 5 -5 10 10 16 20 13 22 -3 3 -11 -5 -18
-17z"/>
<path d="M2717 1023 c-4 -3 -7 -12 -7 -20 0 -10 18 -13 70 -13 68 0 70 1 60
20 -9 16 -21 20 -64 20 -29 0 -56 -3 -59 -7z"/>
<path d="M3546 975 c4 -8 10 -15 15 -15 5 0 9 7 9 15 0 8 -7 15 -15 15 -9 0
-12 -6 -9 -15z"/>
<path d="M4172 879 l3 -114 69 -3 c89 -4 98 -1 83 32 -7 14 -15 26 -19 26 -5
0 -8 6 -8 13 0 7 -16 29 -36 48 -20 18 -50 52 -66 73 l-29 40 3 -115z"/>
<path d="M660 971 c0 -6 -20 -11 -45 -11 l-45 0 0 -92 c0 -55 4 -88 9 -82 24
25 101 183 91 189 -5 3 -10 1 -10 -4z"/>
<path d="M2699 968 c-2 -24 3 -43 14 -50 22 -14 28 -8 25 24 -3 33 -37 55 -39
26z"/>
<path d="M5430 930 c-9 -17 -8 -20 10 -20 13 0 20 7 20 20 0 11 -4 20 -10 20
-5 0 -14 -9 -20 -20z"/>
<path d="M2876 873 c-7 -20 -11 -21 -119 -16 l-112 6 -12 -35 c-7 -19 -13 -39
-13 -46 0 -7 46 -11 144 -11 80 -1 152 -4 160 -7 23 -9 19 13 -13 76 -24 46
-29 51 -35 33z"/>
<path d="M5398 873 c12 -2 32 -2 45 0 12 2 2 4 -23 4 -25 0 -35 -2 -22 -4z"/>
<path d="M5310 820 c-12 -8 -10 -10 8 -10 13 0 20 4 17 10 -7 12 -6 12 -25 0z"/>
<path d="M4331 804 c0 -11 3 -14 6 -6 3 7 2 16 -1 19 -3 4 -6 -2 -5 -13z"/>
<path d="M4350 796 c0 -24 27 -37 67 -34 l38 4 -48 22 c-57 26 -57 26 -57 8z"/>
<path d="M5318 793 c7 -3 16 -2 19 1 4 3 -2 6 -13 5 -11 0 -14 -3 -6 -6z"/>
</g>
</svg>
